<svg id="Layer_1" data-name="Layer 1" xmlns="http://www.w3.org/2000/svg" viewBox="0 0 666.83 211.58"><defs><style>.cls-1{fill:#2bb673;}.cls-2,.cls-3{fill:#fff;}.cls-2{fill-rule:evenodd;}</style></defs><circle class="cls-1" cx="105.79" cy="105.79" r="105.79"/><g id="dCWc9hM-acZFBzGBqxmni"><path class="cls-2" d="M131.74,71.44s12.86-.46,23.25,7,19.87,21,19.87,36.07-5,27.16-1.43,34-2.77,10.61-10.58,13.39-7-9.28-12.39-3.28c0,0-1,1.51.44,5s3.14,15.47-19.16,14.84c-22.31.63-20.55-11.3-19.17-14.84s.45-5,.45-5c-5.42-6-4.6,6.06-12.4,3.28s-14.1-6.57-10.57-13.39-1.44-18.95-1.44-34S98.1,86,108.49,78.49,131.74,71.44,131.74,71.44Zm33.38,34.78s1.45,5.94.31,10.11-1.82,7.7-1.63,9.16,3.71,5.87,3.27,11.24-1.89,12.07,1.89,4-3.65-13.64-3-19.26S167.83,110.64,165.12,106.22Zm-33.38,36.07a86.45,86.45,0,0,0,4.94,10.36c2.2,3.54,3.52,6.25,3.33,9.28s-4.72,6.51-8.27,2.78c-3.56,3.73-8.09.25-8.28-2.78s1.13-5.74,3.34-9.28A88.15,88.15,0,0,0,131.74,142.29Zm19.1-15.16s12.27,0,11.83,10.55-7.37,9.6-11.2,9.41-15.23,0-14.79-8.46S144.1,127.07,150.84,127.13ZM98.35,106.22s-1.44,5.94-.31,10.11,1.82,7.7,1.63,9.16S96,131.36,96.4,136.73s1.89,12.07-1.88,4,3.64-13.64,3-19.26S95.65,110.64,98.35,106.22Zm14.29,20.91s-12.27,0-11.83,10.55,7.36,9.6,11.2,9.41,15.23,0,14.79-8.46-7.43-11.56-14.16-11.5" transform="translate(-25.95 -19.21)"/></g><path class="cls-3" d="M343.57,96.76c1.05.8,4.4,1.19,10.05,1.19l0,.6H349.4l0,.6q7.49,0,9.35,3.58l-.07,1.2h-3l0,.6,4.15.6,0,.59h-3.59l0,.6c1.19,0,1.77.4,1.72,1.2a27.2,27.2,0,0,0-19,7.77l0,.59a30.48,30.48,0,0,1,18.32,13.75l0,.6q-2.19,7.72-12.2,14.34l-3.66.6,0,.6h1.19q-.08,1.6-11,3.58l.07-1.19h3l.07-.6c-2.55,0-4.86-1.4-6.93-4.18-1.78-.92-2.67-2.66-2.67-5.24a6.34,6.34,0,0,1,0-.74l1.86-1.2,1.72,1.2h1.2q16.88-2.64,17.4-10.76-7.06-3.58-9.35-3.58l0,.59-5.88-2.39.57.6,0,1.2q-7.46-5.49-7.28-8.37l4.68-8.37,3.13-2.39-.07,1.2Zm-8.37,49.6,0,.6h2.39l3-.6v-.59H340Zm.21-33.46,0,.59,10.55-6.57,4.85-1.2.07-1.19h-1.19Q340.18,108,335.41,112.9Zm3.3,24.5h.6l1.27-1.2H340Zm3.27,4.78v.6h.6l2.5-1.8Zm7.49-4.78-2.56,3h.59l2.57-3Z" transform="translate(-25.95 -19.21)"/><path class="cls-3" d="M385.82,97.46A22.86,22.86,0,0,1,399,101.65l-.6.59v.6l2.4,3.59h-1.2l-.6-.6h-.6l1.8,13.15h.6c0-2,.39-3,1.19-3v2.39q0,3.38-6,15.54h.6q-4.21,5.81-12.55,10.76l-3,.59h-.6q-14.19,0-17.92-11.35l-2.4-3.59.6-.6-.6-4.18v-1.19q0-5,9.57-17.34v.6a54.66,54.66,0,0,0-7.17,13.15v.6h.59q2.19-8.76,16.14-22.12l-4.18,2.4h-.6Q374.47,98.9,385.82,97.46Zm-23.9,26.9v4.78h.6v-4.78Zm7.77-8.37-1.8,3.58h.6l1.79-3.58Zm13.15-8.37-.6-.6v.6l.6.6-4.19,3.59q-4.95,0-9.56,16.73,0,4.78,5.38,8.37h.6q6.54,0,14.94-13.75,3-6.54,3-9.56v-4.78c0-1.1-2-1.9-6-2.39h-.6l-.6.59h-.59v-.59Zm-12,31.68v.59l3,1.8v-.6ZM390,126.15l-2.39,3h.59l2.39-3Zm3-6.58-2.4,6h1.8l1.79-4.18-.6-1.8Zm4.18,2.4-.6,1.79V125h.6l.6-2.39V122Zm3-12.56h1.19v3h-1.19Z" transform="translate(-25.95 -19.21)"/><path class="cls-3" d="M424.46,98.45h.6a14.53,14.53,0,0,1,13.15,7.17v.6H437l.6.59v.6c-2.39-.28-3.59-.68-3.59-1.19q-13.95,0-20.91,14.34l-1.2,4.18,1.79,11.36h1.8q7.44,0,16.73-10.76h.6v.6q-6.36,9.17-14.35,10.76v.59h.6q6.26,0,15.54-10.75l1.79,2.39v1.79q0,1.93-9,9l-.6.6h-.6v1.2q10.17-5,10.16-7.18h1.2v.6q-7.53,9-17.33,9v.59h3l2.39-.59h.59v.59l-7.17,1.16q-4.53,0-9.56-6.53v.59l3,4.78V145h-1.8a14.46,14.46,0,0,1-6.57-9.53l-.6-7.77q0-15,6-19.12v.59l-3.59,6v.6h.6q0-5.7,14.94-16.14l-1.79.6h-.6v-.6Zm-19.12,35.26v1.79l.59,2.39h.6v-.6l-.6-3.58ZM412.51,105v.6l-3,3V108Zm5.38-4.18h.59v.59l-4.18,1.8C414.3,102.43,415.5,101.63,417.89,100.84Z" transform="translate(-25.95 -19.21)"/><path class="cls-3" d="M452.52,97.85c-.1,1.19.65,1.79,2.25,1.79l1.09,2.39-.64.6h.6a111,111,0,0,0-5.24,29.28l-.21,3.59.6.6,0,.6-.63.59h.6l-.63.6.35,4.18-.07,1.2q-3.21,3.87-3.34,6h-2.39l-2.89-1.2.85-4.18-2.29-2.39,1.09-9,.6-10.76,1.3-1.79.14-2.39-.56-.6,0-.59h1.2l0-.6-.56-.6,2.43-11.36h-.6l.63-.59.18-3.59-.56-.6,0-.59Zm-8.55,46-.17,3,1.23-1.2.14-1.79Zm.11-23.91-.18,3.59h.6l.18-3.59Zm.91-5.38-.21,3.59h.6l.21-3.59Zm.92-6-.21,4.18h.59l.21-4.18Z" transform="translate(-25.95 -19.21)"/><path class="cls-3" d="M479.69,94.9q.39,1.78,4.78,1.79l4.78,20.92h4.19v.59l-3.59.6v.6c1.2,0,1.79.4,1.79,1.19h4.79v.6c0,.89-2,1.69-6,2.39l1.19,3.59-.59,1.79.59,3.59-.59.59h.59l-.59.6.59,7.17v3.59l-.59-.6h-.6l1.79,9h-1.19q0-1.8-1.2-1.8v.6l.6,1.79h-.6l-.6-.59h-.59c0,1.19-.4,1.79-1.2,1.79l-3-10.16h-.59v2.39h-.6l-1.2-7.17,1.8,1.19v-.59q-.5-5.38-1.8-5.38l.6-.6v-1.79h-1.2v1.79h-.59V132l.59-.6h-.59l-.6.6v-2.39h.6l.59.6h.6l-.6-.6V126l-13.14,3v1.2l4.18-1.2,2.39.6,3-.6v1.2q-12.56,2.25-12.55,6c-1.06,4.39-2.25,7.17-3.59,8.37v1.2H460l-.6-.6h-.6v.6L457,144.5l1.2-3.59h-.6c-1.2,0-1.79,1.6-1.79,4.79l-1.2-1.2.6-3.59-1.8-1.79,10.16-24.5h.6c0,1.19.4,1.79,1.2,1.79l.6-3-.6.6h-.6v-2.39l.6-3,.6.6h.59l-.59-.6V108l1.19-2.39h.6l.6.6h.59v-.6c0-.79-.59-1.19-1.79-1.19l3-8.37h2.39l-.6.6v.6A15.66,15.66,0,0,1,479.69,94.9Zm-17.33,25.69-.6,2.39h.6l1.19-2.39Zm1.79-3-.6.59v1.2h.6l.6-1.79Zm3.59,2.39-.6,2.39h.6l.6-.6V120Zm3-7.77-1.2,4.18-.6-.6h-.59l.59,2.39h.6l1.79-5.38v-.59Zm5.38-3.59-4.79,12.55h1.2c4,0,6.18-1.19,6.57-3.58l-2.39-9Zm-3.59,13.75V123h1.19q5.39-.58,5.38-1.79h-.59Zm8.37,13.15h1.19v3.58h-.6Zm2.39,6v1.2l1.79-.6v-1.2Zm6-1.79v1.19l.6,2.39h.6v-1.19l-.6-2.39Z" transform="translate(-25.95 -19.21)"/><path class="cls-3" d="M507.29,97.29c.8,0,1.19,1.19,1.19,3.58h1.2l1.79-1.19.6.59-3,33.47q3.8-1.78,20.32-4.18h.6v.6q-20.93,3.41-20.92,5.38l6.58-1.8v.6L527,132v.6l.6-.6h.6l.59.6,3-.6h2.39l4.19.6v.59q0,1.8-9,3v.6l.6-.6h.6l4.18.6.6-.6v1.8l-19.72,4.78-12.55,4.78h-1.8l-2.39-3h-.6v-.6c0-1,.8-1.6,2.39-1.79v-1.79l-1.79-2.39,2.39-26.9h.6v2.39l-.6,4.19h1.2l-1.2,7.77.6.59-.6,2.39v3h.6l2.39-31.67q1.2,0,1.2-1.8l.59-.59Z" transform="translate(-25.95 -19.21)"/><path class="cls-3" d="M574.61,96.76c1.06.8,4.41,1.19,10.06,1.19l0,.6h-4.18l0,.6c5,0,8.11,1.19,9.36,3.58l-.07,1.2h-3l0,.6,4.15.6,0,.59H587.2l0,.6c1.2,0,1.77.4,1.73,1.2a27.2,27.2,0,0,0-19,7.77l0,.59a30.5,30.5,0,0,1,18.32,13.75l0,.6q-2.18,7.72-12.2,14.34l-3.65.6,0,.6h1.2q-.07,1.6-11,3.58l.07-1.19h3l.07-.6c-2.56,0-4.87-1.4-6.93-4.18-1.78-.92-2.67-2.66-2.67-5.24a6.34,6.34,0,0,1,0-.74l1.86-1.2,1.72,1.2h1.2q16.88-2.64,17.4-10.76-7.07-3.58-9.35-3.58l0,.59-5.87-2.39.56.6,0,1.2q-7.46-5.49-7.28-8.37l4.68-8.37,3.13-2.39-.07,1.2Zm-8.36,49.6,0,.6h2.39l3-.6v-.59H571Zm.21-33.46,0,.59L577,106.92l4.85-1.2.07-1.19H580.7Q571.23,108,566.46,112.9Zm3.3,24.5h.6l1.26-1.2H571Zm3.27,4.78v.6h.6l2.49-1.8Zm7.49-4.78-2.57,3h.6l2.57-3Z" transform="translate(-25.95 -19.21)"/><path class="cls-3" d="M626.57,96.55l1.8.6v1.19h-1.8l1.2,1.79q-1.31,3-9.56,3l-4.19.6-.59,1.79H614q-1.78,4.26-7.17,38.25l1.79,7.77h-.59q-1.34,0-2.39-6l.59-6V139h-.59v1.2c-1.2,0-1.8.4-1.8,1.19v.6l1.2,9.56v.6h-1.2l-2.39-1.79-.59.59h-.6a21.87,21.87,0,0,1-2.39-9l.59.6h.6l-1.19-4.19,1.79-.59v-3h-1.2v-.6q1.8,0,1.8-1.2v-.59h-1.2q0-4.78,1.8-4.79v-7.76q.95-.85,2.39-12.55l-4.19.59-8.37-.59v-.6l3-.6v.6l.6-.6h9v-1.79l-9.57,1.19-.59-.6h-.6l-3.59.6-1.79-1.19.6-3-.6-.6q0-3,7.17-3Zm-25.69,35.26L599.68,145h1.2l-.6-3v-1.2l1.19-1.79h-.59l.59-.6v-.59l-.59-.6v-.6l1.19-2.39-.6-2.39ZM623,98.34v.6h2.39v-.6Z" transform="translate(-25.95 -19.21)"/><path class="cls-3" d="M645.63,95.77l-.07,1.2h-1.79l0,.6h.6l11.39-.6h2.39l0,.6-1.23,1.19.57.6,0,1.2c-.07,2.06-.71,3.25-1.93,3.58l.56,1.79-.7,1.8-.57-.6h-.59q-8.37.42-8.41,1.19l-.59-.59q-10.23,1.62-10.37,6l-.18,4.78L649,117.29l.6.6,0,.59h-3l0,.6c2,0,3,.4,2.92,1.2v.6c-.07,2-.51,3-1.31,3h-3.58l0,.6h4.19l0,1.2q0,1-15.11,4.18l-.85,6.57.6.6v.6l-.63.6,0,.59.53,1.8h-.6l.53,1.79q.21,2.54-4.19,9.28l-4.78-.6.81-6a2,2,0,0,1-2.28-2.22v-.17q.92-1.52,2.18-18.85H626l-.56-.59.77-4.79.57.6h.59l.85-6,.1-2.39c-2,0-3-.4-3-1.2l1.27-1.79c-1.59,0-2.36-.6-2.29-1.8q.18-5.37,2-5.37a2.75,2.75,0,0,0,3.1-3H630l.57.59L631.81,97h1.8l1.72,1.79ZM625.8,129.24l-.25,6.58h.6l.25-6.58Zm.88,17-.11,2.39h.6l.11-2.39Zm15-40.95v.59h.59l12-1.19,0-.6-1.76-.6-.63.6h-.6l-.56-.6Zm5.62-6.58,0,.6H649l6.61-.6v-.6h-3.59Z" transform="translate(-25.95 -19.21)"/><path class="cls-3" d="M666.48,97.71l1.19,1.79-.6,3,.6.6h.6l.6-3h1.19l.6,1.79q-4.78,17.24-4.78,26.9c.4,4.38,1.19,6.57,2.39,6.57L682,119.82l.59-3V100.1l1.2-1.2c.8,0,1.19.8,1.19,2.39h.6c0-1.59,1-2.39,3-2.39l1.2,2.39-.6,3c.79,0,1.19-1,1.19-3h1.2l.6.6h.59l-3,43-.6,2.39a2.11,2.11,0,0,0-2.39,2.39h-2.39l.59-6h-1.19v3.58l-1.79,1.8v-.6l.59-6c-1.19,0-1.79-.79-1.79-2.39h-.6l-10.16,4.78-4.78-1.19v.59q-6.18,0-8.37-17.93,2.4-26.88,4.79-26.89v-.6h.59v2.39H661.1v1.2l.6.6v.59h-.6l.6,1.8-1.8,3h.6l.6-.6-1.8,10.76V121h.6Q661.81,97.71,666.48,97.71Zm-7.18,23.9-.59.6V127h.59l.6-5.38ZM660.5,136v1.19l.6,1.8h.6v-1.2l-.6-1.79Zm4.18,3v.59c0,1.39,1.8,2.58,5.38,3.59h1.2v-.6C669,142.51,666.77,141.31,664.68,139Zm13.15-12.56-4.18,4.79h.6l4.18-4.79Z" transform="translate(-25.95 -19.21)"/></svg>